<svg width="139" height="58" viewBox="0 0 139 58" fill="none" xmlns="http://www.w3.org/2000/svg">
<rect width="139" height="58" rx="22" fill="#F32985"/>
<path d="M45.404 26.476L48.722 30.872L47.098 31.964L44.326 28.254L41.428 32.132L39.818 31.04L43.248 26.476V22.836H45.404V26.476ZM49.842 35.114C49.4687 35.2447 49.282 35.1373 49.282 34.792V22.178H51.41V34.568L49.842 35.114ZM60.2169 29.332L57.5849 27.19L54.8549 29.472L53.4689 28.114L56.5069 25.608V24.544H54.0709V22.724H61.0429V24.544H58.6629V25.594L61.6169 27.974L60.2169 29.332ZM55.5969 31.866V30.046H64.4729V34.568L62.9049 35.114C62.5315 35.2447 62.3449 35.1373 62.3449 34.792V31.866H55.5969ZM62.9049 29.654C62.5315 29.7847 62.3449 29.6773 62.3449 29.332V22.178H64.4729V24.698H66.3909V26.574H64.4729V29.108L62.9049 29.654ZM74.6378 29.766C74.6378 30.3353 74.5444 30.8253 74.3578 31.236C74.1804 31.6467 73.9331 31.9873 73.6158 32.258C73.3078 32.5193 72.9391 32.7153 72.5098 32.846C72.0898 32.9673 71.6418 33.028 71.1658 33.028C70.6898 33.028 70.2371 32.9673 69.8078 32.846C69.3878 32.7153 69.0191 32.5193 68.7018 32.258C68.3938 31.9873 68.1464 31.6467 67.9598 31.236C67.7824 30.8253 67.6938 30.3353 67.6938 29.766V29.206C67.6938 28.6367 67.7824 28.1467 67.9598 27.736C68.1464 27.3253 68.3938 26.9893 68.7018 26.728C69.0191 26.4573 69.3878 26.2613 69.8078 26.14C70.2371 26.0093 70.6898 25.944 71.1658 25.944C71.6418 25.944 72.0898 26.0093 72.5098 26.14C72.9391 26.2613 73.3078 26.4573 73.6158 26.728C73.9331 26.9893 74.1804 27.3253 74.3578 27.736C74.5444 28.1467 74.6378 28.6367 74.6378 29.206V29.766ZM76.2758 35.114C75.9024 35.2447 75.7158 35.1373 75.7158 34.792V22.178H77.8438V27.288H79.8458V29.164H77.8438V34.568L76.2758 35.114ZM67.3298 25.468V23.704H70.0738V22.234H72.2578V23.704H74.9038V25.468H67.3298ZM72.5098 29.136C72.5098 28.6787 72.3838 28.338 72.1318 28.114C71.8798 27.8807 71.5578 27.764 71.1658 27.764C70.7738 27.764 70.4518 27.8807 70.1998 28.114C69.9478 28.338 69.8218 28.6787 69.8218 29.136V29.836C69.8218 30.2933 69.9478 30.6387 70.1998 30.872C70.4518 31.096 70.7738 31.208 71.1658 31.208C71.5578 31.208 71.8798 31.096 72.1318 30.872C72.3838 30.6387 72.5098 30.2933 72.5098 29.836V29.136ZM90.1226 35.114C89.7493 35.2447 89.5626 35.1373 89.5626 34.792V22.178H91.6906V34.568L90.1226 35.114ZM81.1206 24.936V23.116H87.6026V31.908L86.0346 32.454C85.6613 32.5847 85.4746 32.4773 85.4746 32.132V24.936H81.1206ZM97.4875 31.04H95.5275L95.2475 22.64H97.7675L97.4875 31.04ZM95.3875 34.68V32.44H97.6275V34.68H95.3875Z" fill="black"/>
</svg>
